<?xml version="1.0" standalone="no"?><!DOCTYPE svg PUBLIC "-//W3C//DTD SVG 1.1//EN" "http://www.w3.org/Graphics/SVG/1.1/DTD/svg11.dtd"><svg t="1658212114899" class="icon" viewBox="0 0 1024 1024" version="1.1" xmlns="http://www.w3.org/2000/svg" p-id="3883" xmlns:xlink="http://www.w3.org/1999/xlink" width="200" height="200"><defs><style type="text/css">@font-face { font-family: feedback-iconfont; src: url("//at.alicdn.com/t/font_1031158_u69w8yhxdu.woff2?t=1630033759944") format("woff2"), url("//at.alicdn.com/t/font_1031158_u69w8yhxdu.woff?t=1630033759944") format("woff"), url("//at.alicdn.com/t/font_1031158_u69w8yhxdu.ttf?t=1630033759944") format("truetype"); }
</style></defs><path d="M512 1024c282.29632 0 512-229.70368 512-512s-229.70368-512-512-512-512 229.70368-512 512 229.70368 512 512 512zM512 32.01024c264.66304 0 480.01024 215.32672 480.01024 480.01024s-215.32672 480.01024-480.01024 480.01024-480.01024-215.32672-480.01024-480.01024 215.32672-480.01024 480.01024-480.01024zM641.9456 696.58624c3.13344 3.13344 7.22944 4.66944 11.32544 4.66944s8.192-1.57696 11.32544-4.66944c6.2464-6.2464 6.2464-16.384 0-22.6304l-152.61696-152.576 0-223.17056c0-8.82688-7.168-15.99488-15.99488-15.99488s-15.99488 7.168-15.99488 15.99488l0 229.7856c0 4.25984 1.69984 8.31488 4.66944 11.32544l157.2864 157.24544zM96.01024 512c0 17.67424 14.336 32.01024 32.01024 32.01024s32.01024-14.336 32.01024-32.01024c0-17.67424-14.336-32.01024-32.01024-32.01024s-32.01024 14.336-32.01024 32.01024zM864.01024 512c0 17.67424 14.336 32.01024 32.01024 32.01024s32.01024-14.336 32.01024-32.01024c0-17.67424-14.336-32.01024-32.01024-32.01024s-32.01024 14.336-32.01024 32.01024zM480.01024 128c0 17.67424 14.336 32.01024 32.01024 32.01024s32.01024-14.336 32.01024-32.01024c0-17.67424-14.336-32.01024-32.01024-32.01024s-32.01024 14.336-32.01024 32.01024zM480.01024 896c0 17.67424 14.336 32.01024 32.01024 32.01024s32.01024-14.336 32.01024-32.01024c0-17.67424-14.336-32.01024-32.01024-32.01024s-32.01024 14.336-32.01024 32.01024zM224.01024 256c0 17.67424 14.336 32.01024 32.01024 32.01024s32.01024-14.336 32.01024-32.01024c0-17.67424-14.336-32.01024-32.01024-32.01024s-32.01024 14.336-32.01024 32.01024zM736.01024 768c0 17.67424 14.336 32.01024 32.01024 32.01024s32.01024-14.336 32.01024-32.01024c0-17.67424-14.336-32.01024-32.01024-32.01024s-32.01024 14.336-32.01024 32.01024zM768 256c0 17.67424 14.336 32.01024 32.01024 32.01024s32.01024-14.336 32.01024-32.01024c0-17.67424-14.336-32.01024-32.01024-32.01024s-32.01024 14.336-32.01024 32.01024zM224.01024 768c0 17.67424 14.336 32.01024 32.01024 32.01024s32.01024-14.336 32.01024-32.01024c0-17.67424-14.336-32.01024-32.01024-32.01024s-32.01024 14.336-32.01024 32.01024z" p-id="3884"></path></svg>