<?xml version="1.0" standalone="no"?><!DOCTYPE svg PUBLIC "-//W3C//DTD SVG 1.1//EN" "http://www.w3.org/Graphics/SVG/1.1/DTD/svg11.dtd"><svg t="1658625587635" class="icon" viewBox="0 0 1024 1024" version="1.1" xmlns="http://www.w3.org/2000/svg" p-id="6454" xmlns:xlink="http://www.w3.org/1999/xlink" width="200" height="200"><defs><style type="text/css">@font-face { font-family: feedback-iconfont; src: url("//at.alicdn.com/t/font_1031158_u69w8yhxdu.woff2?t=1630033759944") format("woff2"), url("//at.alicdn.com/t/font_1031158_u69w8yhxdu.woff?t=1630033759944") format("woff"), url("//at.alicdn.com/t/font_1031158_u69w8yhxdu.ttf?t=1630033759944") format("truetype"); }
</style></defs><path d="M361.016889 28.444444H150.584889A122.140444 122.140444 0 0 0 28.444444 150.584889v210.830222C28.444444 428.885333 83.114667 483.555556 150.584889 483.555556H483.555556V150.641778A122.481778 122.481778 0 0 0 361.016889 28.444444z m45.112889 309.020445v69.063111H186.140444a80.668444 80.668444 0 0 1-80.668444-80.668444v-139.377778c0-44.657778 36.352-80.611556 80.668444-80.611556h139.377778c44.657778 0 80.611556 36.352 80.611556 80.668445v150.926222zM873.415111 483.555556A122.140444 122.140444 0 0 0 995.555556 361.415111V150.584889A122.140444 122.140444 0 0 0 873.415111 28.444444h-210.830222A122.140444 122.140444 0 0 0 540.444444 150.584889V483.555556H873.358222zM617.813333 337.464889V186.538667c0-44.714667 36.352-80.668444 80.668445-80.668445h139.377778c44.657778 0 80.611556 36.352 80.611555 80.668445v139.377777c0 44.657778-36.352 80.611556-80.668444 80.611556h-219.989334V337.464889zM150.584889 540.444444A122.140444 122.140444 0 0 0 28.444444 662.584889v210.830222c0 67.470222 54.670222 122.140444 122.140445 122.140445h210.830222A122.140444 122.140444 0 0 0 483.555556 873.415111V540.444444H150.641778z m255.544889 146.090667v151.324445c0 44.714667-36.352 80.668444-80.668445 80.668444h-139.377777a80.668444 80.668444 0 0 1-80.611556-80.668444v-139.377778c0-44.657778 36.352-80.611556 80.668444-80.611556h219.989334v68.664889zM873.415111 540.444444H540.444444V873.358222c0 67.527111 54.670222 122.197333 122.140445 122.197334h210.830222a122.140444 122.140444 0 0 0 122.140445-122.140445v-210.830222A121.912889 121.912889 0 0 0 873.415111 540.444444z m45.112889 297.016889c0 44.714667-36.352 80.668444-80.668444 80.668445h-139.377778a80.668444 80.668444 0 0 1-80.611556-80.668445v-219.989333h219.989334c44.714667 0 80.668444 36.352 80.668444 80.668444v139.377778z" fill="#000000" p-id="6455"></path></svg>