<?xml version="1.0" standalone="no"?><!DOCTYPE svg PUBLIC "-//W3C//DTD SVG 1.1//EN" "http://www.w3.org/Graphics/SVG/1.1/DTD/svg11.dtd"><svg t="1658189689490" class="icon" viewBox="0 0 1024 1024" version="1.1" xmlns="http://www.w3.org/2000/svg" p-id="1568" xmlns:xlink="http://www.w3.org/1999/xlink" width="200" height="200"><defs><style type="text/css">@font-face { font-family: feedback-iconfont; src: url("//at.alicdn.com/t/font_1031158_u69w8yhxdu.woff2?t=1630033759944") format("woff2"), url("//at.alicdn.com/t/font_1031158_u69w8yhxdu.woff?t=1630033759944") format("woff"), url("//at.alicdn.com/t/font_1031158_u69w8yhxdu.ttf?t=1630033759944") format("truetype"); }
</style></defs><path d="M111.304348 604.827826a445.217391 419.172174 0 1 0 890.434782 0 445.217391 419.172174 0 1 0-890.434782 0Z" fill="#7A4ECE" p-id="1569"></path><path d="M871.290435 213.25913c-52.535652-52.090435-188.994783-97.725217-253.996522-48.751304a101.509565 101.509565 0 0 0-60.772174-22.260869 101.954783 101.954783 0 0 0-61.44 22.260869c-64.77913-49.864348-202.128696-4.006957-254.886956 48.306087s-50.086957 147.366957 10.685217 207.693913a153.377391 153.377391 0 0 0 189.217391 26.935652 167.846957 167.846957 0 0 0 231.958261 0 153.6 153.6 0 0 0 188.326957-27.603478c60.994783-59.213913 65.892174-152.709565 10.907826-206.58087z" fill="#73D36E" p-id="1570"></path><path d="M226.838261 714.573913a459.01913 459.01913 0 0 1-16.250435-96.389565c-2.671304-42.295652-26.267826-22.26087-27.380869 3.784348a325.231304 325.231304 0 0 0 20.257391 105.071304c20.48 55.206957 44.521739 78.58087 48.751304 74.128696s-11.130435-37.175652-25.377391-86.594783zM206.58087 549.843478c0-10.907826-3.784348-20.257391-13.80174-19.812174a22.26087 22.26087 0 0 0-16.250434 22.26087 18.476522 18.476522 0 0 0 15.805217 18.476522c10.017391-0.667826 14.024348-9.794783 14.246957-20.925218z" fill="#FFFFFF" p-id="1571"></path><path d="M924.493913 398.692174a11.130435 11.130435 0 0 0-19.812174 10.017391 384.445217 384.445217 0 0 1 41.405218 174.302609c0 224.834783-194.782609 408.041739-434.086957 408.041739S77.913043 807.846957 77.913043 582.789565a387.33913 387.33913 0 0 1 80.584348-236.187826 179.422609 179.422609 0 0 0 40.069566 60.326957 175.415652 175.415652 0 0 0 122.434782 51.867826 148.48 148.48 0 0 0 73.015652-18.699131 179.422609 179.422609 0 0 0 235.074783 0 147.812174 147.812174 0 0 0 71.68 18.253913A176.083478 176.083478 0 0 0 823.652174 406.706087a172.966957 172.966957 0 0 0 52.313043-121.544348 142.024348 142.024348 0 0 0-41.627826-101.954782C779.130435 128.890435 645.565217 83.033043 572.772174 128.890435a114.198261 114.198261 0 0 0-46.08-18.921739 372.646957 372.646957 0 0 0-17.14087-91.269566 11.130435 11.130435 0 1 0-21.147826 7.123479 359.067826 359.067826 0 0 1 15.805218 83.255652c-64.77913 5.342609-115.756522 76.354783-140.02087 137.794782a11.130435 11.130435 0 1 0 20.702609 8.236522c24.709565-61.885217 73.46087-124.215652 127.332174-124.215652 74.573913 0 144.695652 126.21913 144.695652 202.573913 0 70.566957-65.001739 128.222609-144.695652 128.222609a143.36 143.36 0 0 1-139.575652-94.163478 11.130435 11.130435 0 0 0-22.26087 6.67826A143.36 143.36 0 0 0 378.434783 422.956522a143.805217 143.805217 0 0 1-164.062609-31.833044 150.706087 150.706087 0 0 1-45.634783-105.73913 119.986087 119.986087 0 0 1 34.726957-86.372174 271.137391 271.137391 0 0 1 189.662609-66.782609 11.353043 11.353043 0 0 0 12.243478-10.017391 11.130435 11.130435 0 0 0-9.794783-10.907826 295.846957 295.846957 0 0 0-207.693913 71.902609 142.024348 142.024348 0 0 0-41.405217 101.954782 159.833043 159.833043 0 0 0 4.006956 35.172174A410.490435 410.490435 0 0 0 55.652174 582.789565c0 237.30087 204.8 430.302609 456.347826 430.302609s456.347826-193.001739 456.347826-430.302609a406.038261 406.038261 0 0 0-43.853913-184.097391z m-333.913043-255.109565c63.22087-31.165217 180.535652 8.904348 227.506087 55.652174a119.986087 119.986087 0 0 1 34.949565 86.149565 150.706087 150.706087 0 0 1-45.634783 105.73913A144.695652 144.695652 0 0 1 645.565217 422.956522a140.02087 140.02087 0 0 0 33.391305-89.043479 296.514783 296.514783 0 0 0-87.485218-190.330434z" fill="#604D42" p-id="1572"></path><path d="M347.046957 308.090435a11.130435 11.130435 0 0 0 9.349565 12.688695h1.558261a11.130435 11.130435 0 0 0 10.907826-9.572173c0-6.233043 2.226087-12.911304 3.784348-19.589566a11.130435 11.130435 0 0 0-22.26087-5.342608c-0.890435 7.568696-2.226087 14.914783-3.33913 21.815652z" fill="#604D42" p-id="1573"></path></svg>