<?xml version="1.0" standalone="no"?><!DOCTYPE svg PUBLIC "-//W3C//DTD SVG 1.1//EN" "http://www.w3.org/Graphics/SVG/1.1/DTD/svg11.dtd"><svg t="1658561112077" class="icon" viewBox="0 0 1024 1024" version="1.1" xmlns="http://www.w3.org/2000/svg" p-id="6957" xmlns:xlink="http://www.w3.org/1999/xlink" width="200" height="200"><defs><style type="text/css">@font-face { font-family: feedback-iconfont; src: url("//at.alicdn.com/t/font_1031158_u69w8yhxdu.woff2?t=1630033759944") format("woff2"), url("//at.alicdn.com/t/font_1031158_u69w8yhxdu.woff?t=1630033759944") format("woff"), url("//at.alicdn.com/t/font_1031158_u69w8yhxdu.ttf?t=1630033759944") format("truetype"); }
</style></defs><path d="M963.764706 120.470588v120.470588H301.176471V120.470588h662.588235zM301.176471 542.117647h662.588235V421.647059H301.176471v120.470588z m0 301.176471h662.588235v-120.470589H301.176471v120.470589zM120.470588 120.470588a60.235294 60.235294 0 1 0 0 120.470588 60.235294 60.235294 0 0 0 0-120.470588z m0 301.176471a60.235294 60.235294 0 1 0 0 120.470588 60.235294 60.235294 0 0 0 0-120.470588z m0 301.17647a60.235294 60.235294 0 1 0 0 120.470589 60.235294 60.235294 0 0 0 0-120.470589z" p-id="6958"></path></svg>