<?xml version="1.0" standalone="no"?><!DOCTYPE svg PUBLIC "-//W3C//DTD SVG 1.1//EN" "http://www.w3.org/Graphics/SVG/1.1/DTD/svg11.dtd"><svg t="1658625567982" class="icon" viewBox="0 0 1024 1024" version="1.1" xmlns="http://www.w3.org/2000/svg" p-id="5531" xmlns:xlink="http://www.w3.org/1999/xlink" width="200" height="200"><defs><style type="text/css">@font-face { font-family: feedback-iconfont; src: url("//at.alicdn.com/t/font_1031158_u69w8yhxdu.woff2?t=1630033759944") format("woff2"), url("//at.alicdn.com/t/font_1031158_u69w8yhxdu.woff?t=1630033759944") format("woff"), url("//at.alicdn.com/t/font_1031158_u69w8yhxdu.ttf?t=1630033759944") format("truetype"); }
</style></defs><path d="M215.814401 697.823086h-39.41715V448.509614c0-153.726884 78.834299-279.861763 211.86718-339.972916 1.970857-25.621147 11.825145-50.256866 29.562862-69.96544 20.694004-22.664861 49.271437-36.460863 79.819728-38.431721 60.111153-2.956286 113.324305 41.388007 121.207735 100.513731C690.791055 116.420128 748.93135 158.793564 789.333929 221.861004c37.446292 59.125725 58.140296 135.989166 58.140296 216.794323v257.196902h-39.41715v-256.211473c0-123.178593-55.18401-275.920048-211.86718-302.526624l-16.752288-2.956286v-19.708575-2.956286c-1.970857-42.373436-38.431721-74.892584-80.805157-72.921727-20.694004 0.985429-39.41715 9.854287-53.213152 25.621147s-20.694004 34.490006-19.708575 55.18401V133.172417l-10.839716 6.898001C289.721557 190.327284 215.814401 305.622447 215.814401 448.509614v249.313472z" p-id="5532"></path><path d="M983.463391 881.112832H40.408085v-64.052868c0-75.878013 62.082011-137.960024 137.960024-137.960024h129.091165c10.839716 0 19.708575 8.868859 19.708575 19.708575s-8.868859 19.708575-19.708575 19.708575H178.368109c-54.198581 0-98.542874 44.344293-98.542875 98.542874v24.635719h864.221007v-24.635719c0-54.198581-44.344293-98.542874-98.542874-98.542874H416.841864c-10.839716 0-19.708575-8.868859-19.708575-19.708575s8.868859-19.708575 19.708575-19.708575h428.661503c75.878013 0 137.960024 62.082011 137.960024 137.960024v64.052868z" p-id="5533"></path><path d="M511.443024 1024c-89.674016 0-162.595742-72.921727-162.595743-162.595742 0-10.839716 8.868859-19.708575 19.708575-19.708575s19.708575 8.868859 19.708575 19.708575c0 67.994583 55.18401 123.178593 123.178593 123.178592s123.178593-55.18401 123.178592-123.178592c0-10.839716 8.868859-19.708575 19.708575-19.708575s19.708575 8.868859 19.708575 19.708575c0.985429 89.674016-71.936298 162.595742-162.595742 162.595742z" p-id="5534"></path></svg>