<?xml version="1.0" standalone="no"?><!DOCTYPE svg PUBLIC "-//W3C//DTD SVG 1.1//EN" "http://www.w3.org/Graphics/SVG/1.1/DTD/svg11.dtd"><svg t="1658192599332" class="icon" viewBox="0 0 1024 1024" version="1.1" xmlns="http://www.w3.org/2000/svg" p-id="3783" xmlns:xlink="http://www.w3.org/1999/xlink" width="200" height="200"><defs><style type="text/css">@font-face { font-family: feedback-iconfont; src: url("//at.alicdn.com/t/font_1031158_u69w8yhxdu.woff2?t=1630033759944") format("woff2"), url("//at.alicdn.com/t/font_1031158_u69w8yhxdu.woff?t=1630033759944") format("woff"), url("//at.alicdn.com/t/font_1031158_u69w8yhxdu.ttf?t=1630033759944") format("truetype"); }
</style></defs><path d="M5.12 611.05152V489.8816A29.09184 29.09184 0 0 1 34.21184 460.8h21.06368a95.76448 95.76448 0 0 0 84.4288-50.57536l3.1232-5.8368c98.69312-184.40192 302.15168-287.42656 509.20448-257.8432l44.82048 6.4a373.0944 373.0944 0 0 1 311.4496 288.4096c16.98816 76.47232 14.87872 156.78464-18.9952 227.4304-18.37056 38.33856-42.22976 81.5104-71.23968 120.64768C875.24352 847.22688 835.95264 911.40096 829.44 983.04h-76.8l-6.67648-80.08704c-1.80224-21.7088-23.552-35.84-44.35968-29.39904-83.80416 25.93792-147.49696 34.6112-218.95168 22.30272-63.0784-10.8544-129.08544 24.04352-139.61216 87.18336H276.48l-2.22208-34.39616a422.1952 422.1952 0 0 0-82.24768-224.37888 184.03328 184.03328 0 0 0-115.44576-71.50592l-42.94656-7.66976A34.58048 34.58048 0 0 1 5.12 611.05152z" fill="#FF7744" p-id="3784"></path><path d="M225.28 491.52m-40.96 0a40.96 40.96 0 1 0 81.92 0 40.96 40.96 0 1 0-81.92 0Z" fill="#FFA17E" p-id="3785"></path><path d="M333.19936 260.32128a282.7264 282.7264 0 0 0-104.30464 122.17344l-6.36928-28.02688A333.11744 333.11744 0 0 0 153.6 215.04h10.91584c59.2896 0 117.47328 15.65696 168.68352 45.28128z" fill="#E36130" p-id="3786"></path><path d="M755.05664 229.94944c1.77152-9.82016 2.70336-19.93728 2.70336-30.26944C757.76 106.36288 682.11712 30.72 588.8 30.72S419.84 106.36288 419.84 199.68c0 12.83072 1.4336 25.32352 4.13696 37.33504C475.2384 216.55552 535.08096 204.8 599.04 204.8c56.18688 0 109.2096 9.07264 156.01664 25.14944z" fill="#FFA17E" p-id="3787"></path></svg>